<svg width="62" height="62" viewBox="0 0 62 62" fill="none" xmlns="http://www.w3.org/2000/svg">
<circle cx="31" cy="31" r="31" fill="#436850"/>
<path d="M46.9663 35.1065C46.6223 32.8772 45.2178 31.0036 41.0539 29.2549C39.6047 28.5516 37.9954 28.0656 37.5123 26.936C37.3338 26.2626 37.3075 25.8987 37.423 25.4996C37.7197 24.1853 39.2267 23.7916 40.4081 24.1555C41.1773 24.3999 41.8862 25.0108 42.3299 25.9911C44.3645 24.6144 44.3645 24.6144 45.7848 23.6993C45.2519 22.8467 44.9867 22.4747 44.6323 22.1081C43.3905 20.6744 41.7365 19.9412 39.0508 20.0037L37.6646 20.1856C36.3335 20.5223 35.0628 21.2582 34.2962 22.233C32.0515 24.8615 32.7 29.4423 35.4173 31.3403C38.103 33.4176 42.0358 33.8738 42.5373 35.8288C43.0098 38.2129 40.8255 38.9759 38.6648 38.7017C37.0712 38.3324 36.1839 37.5096 35.2098 35.9809L31.6078 38.1206C32.02 39.0954 32.4926 39.5244 33.2014 40.3798C36.6275 43.9532 45.1941 43.7713 46.73 38.3324C46.7851 38.1505 47.2025 36.8987 46.877 34.9735L46.9663 35.1065ZM29.2791 20.3512H24.8528C24.8528 24.2967 24.8344 28.2204 24.8344 32.1739C24.8344 34.6829 24.9578 36.9856 24.5613 37.6943C23.9129 39.0981 22.2353 38.9189 21.4765 38.6691C20.6968 38.2726 20.3004 37.7214 19.8409 36.9285C19.7175 36.7167 19.6256 36.5321 19.5915 36.5321L16 38.8239C16.6012 40.1082 17.4781 41.2107 18.6096 41.9112C20.2925 42.9512 22.5529 43.2879 24.921 42.7394C26.4647 42.2778 27.7958 41.3301 28.4863 39.8638C29.4944 37.9712 29.2791 35.6469 29.2713 33.051C29.2923 28.8666 29.2713 24.6795 29.2713 20.4653L29.2791 20.3512Z" fill="white"/>
</svg>
