<svg width="48" height="48" viewBox="0 0 48 48" fill="none" xmlns="http://www.w3.org/2000/svg">
<rect x="1" y="1" width="46" height="46" rx="23" stroke="white" stroke-width="2"/>
<path d="M29.8963 16.5638C30.4176 16.5638 30.8775 17.0237 30.8775 17.5757V29.32C30.8775 29.872 30.4176 30.3013 29.8963 30.3013H18.0906C17.5693 30.3013 17.14 29.872 17.14 29.32V17.5757C17.14 17.0237 17.5693 16.5638 18.0906 16.5638H29.8963ZM21.2797 28.3388V21.8073H19.2558V28.3388H21.2797ZM20.2677 20.8874C20.9117 20.8874 21.433 20.3661 21.433 19.7222C21.433 19.0782 20.9117 18.5263 20.2677 18.5263C19.5931 18.5263 19.0719 19.0782 19.0719 19.7222C19.0719 20.3661 19.5931 20.8874 20.2677 20.8874ZM28.915 28.3388V24.7511C28.915 23.0032 28.5164 21.6233 26.4619 21.6233C25.4806 21.6233 24.806 22.1753 24.5301 22.6966H24.4994V21.8073H22.5676V28.3388H24.5914V25.119C24.5914 24.2604 24.7447 23.4325 25.8179 23.4325C26.8605 23.4325 26.8605 24.4138 26.8605 25.1497V28.3388H28.915Z" fill="white"/>
</svg>
