<svg width="62" height="62" viewBox="0 0 62 62" fill="none" xmlns="http://www.w3.org/2000/svg">
<circle cx="31" cy="31" r="31" fill="#436850"/>
<path d="M38.4169 13.087C38.7684 13.2346 39.0215 13.551 39.0918 13.9236L40.4908 21.5092L48.0764 22.9012C48.449 22.9715 48.7654 23.2246 48.913 23.5761C49.0607 23.9276 49.0185 24.3283 48.8006 24.6447L44.4207 31L48.8006 37.3483C49.0185 37.6647 49.0607 38.0654 48.913 38.4169C48.7654 38.7684 48.449 39.0215 48.0764 39.0918L40.4908 40.4908L39.0918 48.0764C39.0215 48.449 38.7684 48.7654 38.4169 48.913C38.0654 49.0607 37.6647 49.0185 37.3483 48.8006L31 44.4207L24.6517 48.8006C24.3353 49.0185 23.9346 49.0607 23.5831 48.913C23.2316 48.7654 22.9785 48.449 22.9082 48.0764L21.5092 40.4908L13.9236 39.0918C13.551 39.0215 13.2346 38.7684 13.087 38.4169C12.9393 38.0654 12.9815 37.6647 13.1994 37.3483L17.5793 31L13.1994 24.6517C12.9815 24.3353 12.9393 23.9346 13.087 23.5831C13.2346 23.2316 13.551 22.9785 13.9236 22.9082L21.5092 21.5092L22.9082 13.9236C22.9785 13.551 23.2316 13.2346 23.5831 13.087C23.9346 12.9393 24.3353 12.9815 24.6517 13.1994L31 17.5793L37.3483 13.1994C37.6647 12.9815 38.0654 12.9393 38.4169 13.087ZM24.251 31C24.251 29.21 24.962 27.4934 26.2277 26.2277C27.4934 24.962 29.21 24.251 31 24.251C32.79 24.251 34.5066 24.962 35.7723 26.2277C37.038 27.4934 37.749 29.21 37.749 31C37.749 32.79 37.038 34.5066 35.7723 35.7723C34.5066 37.038 32.79 37.749 31 37.749C29.21 37.749 27.4934 37.038 26.2277 35.7723C24.962 34.5066 24.251 32.79 24.251 31ZM39.9987 31C39.9987 28.6134 39.0506 26.3245 37.363 24.637C35.6755 22.9494 33.3866 22.0013 31 22.0013C28.6134 22.0013 26.3245 22.9494 24.637 24.637C22.9494 26.3245 22.0013 28.6134 22.0013 31C22.0013 33.3866 22.9494 35.6755 24.637 37.363C26.3245 39.0506 28.6134 39.9987 31 39.9987C33.3866 39.9987 35.6755 39.0506 37.363 37.363C39.0506 35.6755 39.9987 33.3866 39.9987 31Z" fill="#FFD644"/>
</svg>
