<svg width="48" height="48" viewBox="0 0 48 48" fill="none" xmlns="http://www.w3.org/2000/svg">
<rect x="1" y="1" width="46" height="46" rx="23" stroke="white" stroke-width="2"/>
<path d="M24.0088 19.9061C25.9406 19.9061 27.5351 21.5007 27.5351 23.4325C27.5351 25.395 25.9406 26.9589 24.0088 26.9589C22.0463 26.9589 20.4824 25.395 20.4824 23.4325C20.4824 21.5007 22.0463 19.9061 24.0088 19.9061ZM24.0088 25.7323C25.266 25.7323 26.2779 24.7204 26.2779 23.4325C26.2779 22.1753 25.266 21.1634 24.0088 21.1634C22.7209 21.1634 21.709 22.1753 21.709 23.4325C21.709 24.7204 22.7515 25.7323 24.0088 25.7323ZM28.4857 19.7835C28.4857 20.2434 28.1177 20.6114 27.6578 20.6114C27.1978 20.6114 26.8299 20.2434 26.8299 19.7835C26.8299 19.3235 27.1978 18.9556 27.6578 18.9556C28.1177 18.9556 28.4857 19.3235 28.4857 19.7835ZM30.8162 20.6114C30.8775 21.746 30.8775 25.1497 30.8162 26.2843C30.7549 27.3882 30.5095 28.3388 29.7123 29.1667C28.915 29.964 27.9338 30.2093 26.8299 30.2706C25.6953 30.3319 22.2916 30.3319 21.157 30.2706C20.0531 30.2093 19.1025 29.964 18.2746 29.1667C17.4773 28.3388 17.232 27.3882 17.1707 26.2843C17.1094 25.1497 17.1094 21.746 17.1707 20.6114C17.232 19.5075 17.4773 18.5263 18.2746 17.729C19.1025 16.9317 20.0531 16.6864 21.157 16.6251C22.2916 16.5638 25.6953 16.5638 26.8299 16.6251C27.9338 16.6864 28.915 16.9317 29.7123 17.729C30.5095 18.5263 30.7549 19.5075 30.8162 20.6114ZM29.3443 27.4802C29.7123 26.5909 29.6203 24.4444 29.6203 23.4325C29.6203 22.4513 29.7123 20.3048 29.3443 19.3849C29.099 18.8022 28.639 18.3116 28.0564 18.097C27.1365 17.729 24.99 17.821 24.0088 17.821C22.9969 17.821 20.8504 17.729 19.9611 18.097C19.3478 18.3423 18.8879 18.8022 18.6426 19.3849C18.2746 20.3048 18.3666 22.4513 18.3666 23.4325C18.3666 24.4444 18.2746 26.5909 18.6426 27.4802C18.8879 28.0934 19.3478 28.5534 19.9611 28.7987C20.8504 29.1667 22.9969 29.0747 24.0088 29.0747C24.99 29.0747 27.1365 29.1667 28.0564 28.7987C28.639 28.5534 29.1297 28.0934 29.3443 27.4802Z" fill="white"/>
</svg>
