<svg width="62" height="62" viewBox="0 0 62 62" fill="none" xmlns="http://www.w3.org/2000/svg">
<circle cx="31" cy="31" r="31" fill="#9EFFC0"/>
<path d="M18.2906 43.0701C25.3135 49.1097 36.0471 48.1313 42.2716 40.8933C48.4961 33.6554 47.8566 22.8963 40.8338 16.8567C37.3877 13.8932 33.0481 12.6244 28.7839 12.9473C28.253 12.9894 27.7967 13.3706 27.6667 13.8898C27.5366 14.4091 27.7529 14.9513 28.2056 15.2185C28.8485 15.5983 29.4624 16.0347 30.0481 16.5384C35.5584 21.2771 36.0628 29.7317 31.1717 35.419C27.8607 39.2691 22.9302 40.8613 18.3797 40.0219C17.8567 39.9283 17.3282 40.1863 17.0713 40.6576C16.8144 41.1288 16.8876 41.7108 17.2555 42.0883C17.5886 42.4256 17.9317 42.7513 18.2957 43.0642L18.2906 43.0701Z" fill="#686868"/>
</svg>
