<svg width="58" height="50" viewBox="0 0 58 50" fill="none" xmlns="http://www.w3.org/2000/svg">
<path d="M0 4.375C0 2.09336 1.85134 0.25 4.14286 0.25H53.8571C56.1487 0.25 58 2.09336 58 4.375C58 6.65664 56.1487 8.5 53.8571 8.5H4.14286C1.85134 8.5 0 6.65664 0 4.375ZM0 25C0 22.7184 1.85134 20.875 4.14286 20.875H53.8571C56.1487 20.875 58 22.7184 58 25C58 27.2816 56.1487 29.125 53.8571 29.125H4.14286C1.85134 29.125 0 27.2816 0 25ZM58 45.625C58 47.9066 56.1487 49.75 53.8571 49.75H4.14286C1.85134 49.75 0 47.9066 0 45.625C0 43.3434 1.85134 41.5 4.14286 41.5H53.8571C56.1487 41.5 58 43.3434 58 45.625Z" fill="white"/>
</svg>
